<svg width="17" height="20" viewBox="0 0 17 20" fill="none" xmlns="http://www.w3.org/2000/svg">
<path fill-rule="evenodd" clip-rule="evenodd" d="M8.52876 0.441303C10.6946 0.450887 12.7646 1.31339 14.2788 2.82755C15.8025 4.3513 16.6554 6.41172 16.6458 8.5488V8.59672C16.5883 11.5005 14.9592 14.1742 12.9275 16.2634C11.7775 17.4421 10.5029 18.4867 9.11334 19.3684C8.73959 19.6846 8.19334 19.6846 7.81959 19.3684C5.75917 18.0267 3.93834 16.3401 2.46251 14.3755C1.16876 12.6696 0.430838 10.6188 0.354172 8.48172C0.373338 4.02547 4.03417 0.43172 8.52876 0.441303ZM8.52876 11.2321C9.20917 11.2321 9.86084 10.9734 10.34 10.5038C10.8383 10.0151 11.1172 9.36434 11.1172 8.68297C11.1172 7.26464 9.95667 6.12422 8.52876 6.12422C7.10084 6.12422 5.95084 7.26464 5.95084 8.68297C5.95084 10.0831 7.08167 11.213 8.50001 11.2321H8.52876Z" fill="#D5D7DC"/>
</svg>
