<svg width="19" height="20" viewBox="0 0 19 20" fill="none" xmlns="http://www.w3.org/2000/svg">
<path d="M9.5 0.680908C4.34791 0.680908 0.15625 4.87257 0.15625 10.0247C0.15625 15.1767 4.34791 19.3684 9.5 19.3684C14.6521 19.3684 18.8438 15.1767 18.8438 10.0247C18.8438 4.87257 14.6521 0.680908 9.5 0.680908ZM14.2199 5.7719L12.114 11.0367C11.9694 11.3983 11.7528 11.7268 11.4775 12.0021C11.2021 12.2775 10.8737 12.4941 10.5121 12.6387L5.24725 14.7446C5.18194 14.7707 5.11039 14.7771 5.04148 14.763C4.97257 14.7489 4.90932 14.7148 4.85958 14.6651C4.80984 14.6153 4.77579 14.5521 4.76165 14.4832C4.74752 14.4143 4.75392 14.3427 4.78006 14.2774L6.886 9.01257C7.0306 8.65098 7.24715 8.32254 7.52252 8.04718C7.79788 7.77181 8.12632 7.55526 8.48791 7.41065L13.7528 5.30472C13.8181 5.27858 13.8896 5.27218 13.9585 5.28631C14.0274 5.30045 14.0907 5.3345 14.1404 5.38424C14.1902 5.43398 14.2242 5.49723 14.2383 5.56614C14.2525 5.63505 14.2461 5.7066 14.2199 5.7719Z" fill="#D2CFD6"/>
</svg>
