<svg width="17" height="20" viewBox="0 0 17 20" fill="none" xmlns="http://www.w3.org/2000/svg">
<path fill-rule="evenodd" clip-rule="evenodd" d="M13.535 5.61662C13.535 8.47489 11.2819 10.792 8.50252 10.792C5.72314 10.792 3.47001 8.47489 3.47001 5.61662C3.47001 2.75836 5.72314 0.441284 8.50252 0.441284C11.2819 0.441284 13.535 2.75836 13.535 5.61662ZM12.822 13.7079C14.4221 14.0319 15.4668 14.5605 15.9145 15.4131C16.2507 16.0785 16.2507 16.8707 15.9145 17.5361C15.4668 18.3887 14.4636 18.9514 12.8054 19.2413C12.0666 19.3903 11.3186 19.4872 10.5669 19.5312C9.87049 19.608 9.17407 19.608 8.46935 19.608H7.20086C6.93555 19.5738 6.67854 19.5568 6.42982 19.5568C5.67807 19.5181 4.92998 19.4241 4.19131 19.2754C2.59118 18.9685 1.54654 18.4228 1.09884 17.5702C0.926013 17.2399 0.834897 16.871 0.833537 16.4959C0.829935 16.1186 0.918295 15.7463 1.09055 15.4131C1.52996 14.5605 2.5746 14.0063 4.19131 13.7079C4.93324 13.5623 5.68387 13.4683 6.43811 13.4265C7.81779 13.3153 9.20382 13.3153 10.5835 13.4265C11.3348 13.4703 12.0826 13.5643 12.822 13.7079Z" fill="#D5D7DC"/>
</svg>
