<svg width="20" height="20" viewBox="0 0 20 20" fill="none" xmlns="http://www.w3.org/2000/svg">
<path fill-rule="evenodd" clip-rule="evenodd" d="M14.8869 1.178L14.888 1.89639C17.7642 2.10328 19.6642 3.90213 19.6673 6.66075L19.6786 14.7355C19.6827 17.7431 17.624 19.5937 14.3241 19.5985L6.26338 19.6081C2.98406 19.6119 0.899565 17.7173 0.895441 14.701L0.884101 6.7211C0.879978 3.94428 2.71293 2.15022 5.58917 1.90788L5.58814 1.18949C5.58711 0.768037 5.92731 0.450987 6.38091 0.450987C6.83451 0.450029 7.17471 0.766121 7.17574 1.18758L7.17677 1.85807L13.3004 1.85041L13.2993 1.17991C13.2983 0.758458 13.6385 0.442366 14.0921 0.441408C14.5354 0.440451 14.8859 0.756542 14.8869 1.178ZM2.47275 7.01701L18.0807 6.99786V6.66261C18.0364 4.60322 16.9106 3.52277 14.89 3.36185L14.8911 4.09939C14.8911 4.51127 14.5416 4.8379 14.0983 4.8379C13.6447 4.83886 13.3035 4.51319 13.3035 4.10131L13.3024 3.32545L7.17885 3.33311L7.17988 4.10801C7.17988 4.52085 6.84071 4.84652 6.38711 4.84652C5.93351 4.84748 5.59228 4.52276 5.59228 4.10993L5.59125 3.37238C3.58098 3.55725 2.46862 4.64154 2.47172 6.71912L2.47275 7.01701ZM13.6644 11.3704V11.381C13.6747 11.8216 14.0664 12.1559 14.5417 12.1463C15.0056 12.1358 15.3757 11.7708 15.3654 11.3302C15.3437 10.9087 14.9715 10.5649 14.5087 10.5658C14.0345 10.5754 13.6633 10.9298 13.6644 11.3704ZM14.5158 15.6712C14.0416 15.6616 13.6591 15.2986 13.6581 14.858C13.6477 14.4174 14.0282 14.0524 14.5024 14.0419H14.5127C14.9972 14.0419 15.39 14.4049 15.39 14.8551C15.391 15.3053 14.9993 15.6702 14.5158 15.6712ZM9.41693 11.3859C9.43755 11.8265 9.83032 12.1704 10.3045 12.1512C10.7684 12.1311 11.1385 11.7671 11.1179 11.3265C11.1066 10.8954 10.7252 10.5602 10.2612 10.5612C9.78702 10.5803 9.4159 10.9453 9.41693 11.3859ZM10.3087 15.6282C9.83453 15.6474 9.44278 15.3035 9.42113 14.8629C9.42113 14.4223 9.79123 14.0583 10.2654 14.0382C10.7294 14.0372 11.1118 14.3724 11.1221 14.8025C11.1438 15.2441 10.7727 15.6081 10.3087 15.6282ZM5.16963 11.4193C5.19025 11.8599 5.58302 12.2048 6.05724 12.1847C6.52115 12.1655 6.89124 11.8006 6.8696 11.3599C6.85929 10.9289 6.47785 10.5937 6.01291 10.5946C5.53869 10.6138 5.1686 10.9787 5.16963 11.4193ZM6.06132 15.6329C5.5871 15.653 5.19536 15.3082 5.17371 14.8675C5.17268 14.4269 5.5438 14.062 6.01802 14.0428C6.48193 14.0419 6.8644 14.3771 6.87471 14.8082C6.89635 15.2488 6.52626 15.6137 6.06132 15.6329Z" fill="#D5D7DC"/>
</svg>
